P3
2 3
255
255   0   0
  0 255   0
255 255   0
  0   0 255
  0   0   0
156  23 200